<?xml version="1.0" encoding="UTF-8" standalone="no"?>
<svg width="16px" height="17px" viewBox="0 0 16 17" version="1.1" xmlns="http://www.w3.org/2000/svg" xmlns:xlink="http://www.w3.org/1999/xlink">
    <!-- Generator: sketchtool 40.3 (33839) - http://www.bohemiancoding.com/sketch -->
    <title>78EBD9C8-4182-4C87-9618-A55C162F1BA9</title>
    <desc>Created with sketchtool.</desc>
    <defs></defs>
    <g id="Style-guide" stroke="none" stroke-width="1" fill="none" fill-rule="evenodd">
        <g id="Notification" transform="translate(-107.000000, -102.000000)" fill="#000000">
            <path d="M115,118.234919 C110.581778,118.234919 107,114.653586 107,110.235364 C107,105.817142 110.581778,102.234919 115,102.234919 C119.418222,102.234919 123,105.817142 123,110.235364 C123,114.653586 119.418222,118.234919 115,118.234919 Z M117.749778,113.734919 C117.543111,113.734919 117.355556,113.651364 117.22,113.515808 L115,111.295808 L112.780444,113.515808 C112.644444,113.651364 112.456889,113.734919 112.249778,113.734919 C111.836,113.734919 111.5,113.399808 111.5,112.985142 C111.5,112.77803 111.584,112.590475 111.72,112.455364 L113.939556,110.235364 L111.72,108.015808 C111.584,107.880253 111.5,107.692697 111.5,107.485142 C111.5,107.070919 111.836,106.734919 112.249778,106.734919 C112.456889,106.734919 112.644444,106.819364 112.780444,106.955364 L115,109.174919 L117.22,106.955364 C117.355556,106.819364 117.543111,106.734919 117.749778,106.734919 C118.164444,106.734919 118.5,107.070919 118.5,107.485142 C118.5,107.692697 118.416,107.880253 118.280444,108.015808 L116.060889,110.235364 L118.280444,112.455364 C118.416,112.590475 118.5,112.77803 118.5,112.985142 C118.5,113.399808 118.164444,113.734919 117.749778,113.734919 Z" id="29"></path>
        </g>
    </g>
</svg>