<?xml version="1.0" encoding="UTF-8" standalone="no"?>
<svg width="27px" height="28px" viewBox="0 0 27 28" version="1.1" xmlns="http://www.w3.org/2000/svg" xmlns:xlink="http://www.w3.org/1999/xlink" xmlns:sketch="http://www.bohemiancoding.com/sketch/ns">
    <!-- Generator: Sketch 3.3.2 (12043) - http://www.bohemiancoding.com/sketch -->
    <title>7</title>
    <desc>Created with Sketch.</desc>
    <defs></defs>
    <g id="Page-1" stroke="none" stroke-width="1" fill="none" fill-rule="evenodd" sketch:type="MSPage">
        <path d="M25.921,4.703 L16.624,14 L25.921,23.297 C26.346,23.722 26.609,24.309 26.609,24.957 C26.609,26.253 25.557,27.305 24.261,27.305 C23.614,27.305 23.026,27.042 22.601,26.616 L13.305,17.32 L4.008,26.616 C3.583,27.042 2.996,27.305 2.348,27.305 C1.052,27.305 0,26.253 0,24.957 C0,24.309 0.263,23.722 0.688,23.297 L9.985,14 L0.688,4.703 C0.263,4.278 0,3.692 0,3.044 C0,1.747 1.052,0.696 2.348,0.696 C2.996,0.696 3.583,0.959 4.008,1.384 L13.305,10.68 L22.601,1.384 C23.026,0.959 23.614,0.696 24.261,0.696 C25.557,0.696 26.609,1.747 26.609,3.044 C26.609,3.692 26.346,4.278 25.921,4.703" id="7" fill="#ACACAC" sketch:type="MSShapeGroup"></path>
    </g>
</svg>