<?xml version="1.0" encoding="UTF-8" standalone="no"?>
<svg width="37px" height="37px" viewBox="0 0 37 37" version="1.1" xmlns="http://www.w3.org/2000/svg" xmlns:xlink="http://www.w3.org/1999/xlink" xmlns:sketch="http://www.bohemiancoding.com/sketch/ns">
    <!-- Generator: Sketch 3.3.3 (12081) - http://www.bohemiancoding.com/sketch -->
    <title>27</title>
    <desc>Created with Sketch.</desc>
    <defs></defs>
    <g id="Page-1" stroke="none" stroke-width="1" fill="none" fill-rule="evenodd" sketch:type="MSPage">
        <g id="27" sketch:type="MSLayerGroup" transform="translate(0.491000, 0.332581)" fill="#000000">
            <path d="M18,36 C27.9411255,36 36,27.9411255 36,18 C36,8.0588745 27.9411255,0 18,0 C8.0588745,0 0,8.0588745 0,18 C0,27.9411255 8.0588745,36 18,36 Z M25.942,14.881 L16.943,23.881 C16.638,24.187 16.216,24.375 15.75,24.375 C15.284,24.375 14.862,24.187 14.556,23.881 L9.494,18.818 C9.188,18.513 9,18.091 9,17.625 C9,16.693 9.756,15.938 10.687,15.938 C11.153,15.938 11.575,16.127 11.881,16.433 L15.75,20.302 L23.556,12.495 C23.861,12.19 24.284,12 24.75,12 C25.681,12 26.437,12.756 26.437,13.687 C26.437,14.154 26.248,14.575 25.942,14.881 Z" sketch:type="MSShapeGroup"></path>
        </g>
    </g>
</svg>