<?xml version="1.0" encoding="UTF-8" standalone="no"?>
<svg width="37px" height="37px" viewBox="0 0 37 37" version="1.1" xmlns="http://www.w3.org/2000/svg" xmlns:xlink="http://www.w3.org/1999/xlink" xmlns:sketch="http://www.bohemiancoding.com/sketch/ns">
    <!-- Generator: Sketch 3.3.2 (12043) - http://www.bohemiancoding.com/sketch -->
    <title>74</title>
    <desc>Created with Sketch.</desc>
    <defs></defs>
    <g id="Page-1" stroke="none" stroke-width="1" fill="none" fill-rule="evenodd" sketch:type="MSPage">
        <g id="74" sketch:type="MSLayerGroup" transform="translate(0.502000, 0.332581)">
            <circle id="Oval-2" fill="#000000" sketch:type="MSShapeGroup" cx="18" cy="18" r="18"></circle>
            <g id="Imported-Layers" transform="translate(15.157895, 6.947368)" fill="#FFFFFF" sketch:type="MSShapeGroup">
                <path d="M5.05263158,2.52631579 C5.05263158,1.13115789 3.92147368,0 2.52631579,0 C1.13115789,0 0,1.13115789 0,2.52631579 L0,12 C0,13.3951579 1.13115789,14.5263158 2.52631579,14.5263158 C3.92147368,14.5263158 5.05263158,13.3951579 5.05263158,12 L5.05263158,2.52631579" id="Fill-1"></path>
                <path d="M2.52631579,16.4210526 C1.13115789,16.4210526 0,17.5522105 0,18.9473684 C0,20.3425263 1.13115789,21.4736842 2.52631579,21.4736842 C3.92147368,21.4736842 5.05263158,20.3425263 5.05263158,18.9473684 C5.05263158,17.5522105 3.92147368,16.4210526 2.52631579,16.4210526" id="Fill-2"></path>
            </g>
        </g>
    </g>
</svg>